<?xml version="1.0" encoding="utf-8"?><!DOCTYPE svg PUBLIC "-//W3C//DTD SVG 1.1//EN" "http://www.w3.org/Graphics/SVG/1.1/DTD/svg11.dtd"><svg version="1.1" xmlns="http://www.w3.org/2000/svg" xmlns:xlink="http://www.w3.org/1999/xlink" width="19" height="32" viewBox="0 0 19 32" data-code="57348" data-tags="phone,mobile,contact,telephone"><g fill="#444" transform="scale(0.03125 0.03125)"><path d="M48 1024h512c26.464 0 48-21.536 48-48v-928c0-26.464-21.536-48-48-48h-512c-26.464 0-48 21.536-48 48v928c0 26.464 21.536 48 48 48zM32 48c0-8.832 7.168-16 16-16h512c8.832 0 16 7.168 16 16v928c0 8.832-7.168 16-16 16h-512c-8.832 0-16-7.168-16-16v-928zM80 864h448c8.832 0 16-7.168 16-16v-672c0-8.832-7.168-16-16-16h-448c-8.832 0-16 7.168-16 16v672c0 8.832 7.168 16 16 16zM96 192h416v640h-416v-640zM288 928c0 17.673 14.327 32 32 32s32-14.327 32-32c0-17.673-14.327-32-32-32-17.673 0-32 14.327-32 32zM240 128h128c8.832 0 16-7.168 16-16s-7.168-16-16-16h-128c-8.832 0-16 7.168-16 16s7.168 16 16 16z" /></g></svg>